<svg width="1427" height="105" viewBox="0 0 1427 105" fill="none" xmlns="http://www.w3.org/2000/svg">
<path d="M166.997 35.9401L165.479 40.6243H144.221L142.703 35.9401H166.997ZM151.813 26L158.265 30.5552V50.5333C158.265 51.1071 158.332 51.5542 158.465 51.8745C158.598 52.1814 158.825 52.4016 159.146 52.5351C159.479 52.6552 159.92 52.7152 160.467 52.7152C160.854 52.7152 161.174 52.7086 161.428 52.6952C161.681 52.6685 165.252 52.6122 165.479 52.5721L162.148 57.4195C161.574 57.6063 160.974 57.7464 160.347 57.8399C159.719 57.9466 159.052 58 158.345 58C156.904 58 155.669 57.7731 154.642 57.3194C153.627 56.8656 152.853 56.1517 152.319 55.1775C151.786 54.2032 151.519 52.9354 151.519 51.374L151.813 26Z" fill="#484848"/>
<path d="M107.707 73.1699H109.459C109.424 73.7441 109.266 74.2539 108.984 74.6992C108.707 75.1445 108.318 75.4922 107.818 75.7422C107.322 75.9922 106.725 76.1172 106.025 76.1172C105.479 76.1172 104.988 76.0234 104.555 75.8359C104.121 75.6445 103.75 75.3711 103.441 75.0156C103.137 74.6602 102.904 74.2305 102.744 73.7266C102.584 73.2227 102.504 72.6582 102.504 72.0332V71.4414C102.504 70.8164 102.586 70.252 102.75 69.748C102.918 69.2402 103.156 68.8086 103.465 68.4531C103.777 68.0977 104.15 67.8242 104.584 67.6328C105.018 67.4414 105.502 67.3457 106.037 67.3457C106.748 67.3457 107.348 67.4746 107.836 67.7324C108.328 67.9902 108.709 68.3457 108.979 68.7988C109.252 69.252 109.416 69.7676 109.471 70.3457H107.713C107.693 70.002 107.625 69.7109 107.508 69.4727C107.391 69.2305 107.213 69.0488 106.975 68.9277C106.74 68.8027 106.428 68.7402 106.037 68.7402C105.744 68.7402 105.488 68.7949 105.27 68.9043C105.051 69.0137 104.867 69.1797 104.719 69.4023C104.57 69.625 104.459 69.9062 104.385 70.2461C104.314 70.582 104.279 70.9766 104.279 71.4297V72.0332C104.279 72.4746 104.312 72.8633 104.379 73.1992C104.445 73.5312 104.547 73.8125 104.684 74.043C104.824 74.2695 105.004 74.4414 105.223 74.5586C105.445 74.6719 105.713 74.7285 106.025 74.7285C106.393 74.7285 106.695 74.6699 106.934 74.5527C107.172 74.4355 107.354 74.2617 107.479 74.0312C107.607 73.8008 107.684 73.5137 107.707 73.1699ZM114.498 74.4824V69.6602H116.185V76H114.597L114.498 74.4824ZM114.685 73.1816L115.183 73.1699C115.183 73.5918 115.135 73.9844 115.037 74.3477C114.939 74.707 114.793 75.0195 114.597 75.2852C114.402 75.5469 114.156 75.752 113.859 75.9004C113.562 76.0449 113.213 76.1172 112.81 76.1172C112.502 76.1172 112.217 76.0742 111.955 75.9883C111.697 75.8984 111.474 75.7598 111.287 75.5723C111.103 75.3809 110.959 75.1367 110.853 74.8398C110.752 74.5391 110.701 74.1777 110.701 73.7559V69.6602H112.388V73.7676C112.388 73.9551 112.41 74.1133 112.453 74.2422C112.5 74.3711 112.564 74.4766 112.646 74.5586C112.728 74.6406 112.824 74.6992 112.933 74.7344C113.047 74.7695 113.172 74.7871 113.308 74.7871C113.656 74.7871 113.929 74.7168 114.129 74.5762C114.332 74.4355 114.474 74.2441 114.556 74.002C114.642 73.7559 114.685 73.4824 114.685 73.1816ZM119.496 67V76H117.802V67H119.496ZM124.236 69.6602V70.8555H120.544V69.6602H124.236ZM121.458 68.0957H123.146V74.0898C123.146 74.2734 123.169 74.4141 123.216 74.5117C123.267 74.6094 123.341 74.6777 123.439 74.7168C123.536 74.752 123.659 74.7695 123.808 74.7695C123.913 74.7695 124.007 74.7656 124.089 74.7578C124.175 74.7461 124.247 74.7344 124.306 74.7227L124.312 75.9648C124.167 76.0117 124.011 76.0488 123.843 76.0762C123.675 76.1035 123.49 76.1172 123.286 76.1172C122.915 76.1172 122.591 76.0566 122.314 75.9355C122.04 75.8105 121.829 75.6113 121.681 75.3379C121.532 75.0645 121.458 74.7051 121.458 74.2598V68.0957ZM129.187 74.4824V69.6602H130.874V76H129.286L129.187 74.4824ZM129.374 73.1816L129.872 73.1699C129.872 73.5918 129.823 73.9844 129.726 74.3477C129.628 74.707 129.481 75.0195 129.286 75.2852C129.091 75.5469 128.845 75.752 128.548 75.9004C128.251 76.0449 127.901 76.1172 127.499 76.1172C127.19 76.1172 126.905 76.0742 126.644 75.9883C126.386 75.8984 126.163 75.7598 125.976 75.5723C125.792 75.3809 125.647 75.1367 125.542 74.8398C125.44 74.5391 125.39 74.1777 125.39 73.7559V69.6602H127.077V73.7676C127.077 73.9551 127.099 74.1133 127.142 74.2422C127.189 74.3711 127.253 74.4766 127.335 74.5586C127.417 74.6406 127.513 74.6992 127.622 74.7344C127.735 74.7695 127.86 74.7871 127.997 74.7871C128.345 74.7871 128.618 74.7168 128.817 74.5762C129.021 74.4355 129.163 74.2441 129.245 74.002C129.331 73.7559 129.374 73.4824 129.374 73.1816ZM134.091 71.043V76H132.403V69.6602H133.991L134.091 71.043ZM136.001 69.6191L135.971 71.1836C135.889 71.1719 135.79 71.1621 135.673 71.1543C135.559 71.1426 135.456 71.1367 135.362 71.1367C135.124 71.1367 134.917 71.168 134.741 71.2305C134.569 71.2891 134.425 71.377 134.307 71.4941C134.194 71.6113 134.108 71.7539 134.05 71.9219C133.995 72.0898 133.964 72.2812 133.956 72.4961L133.616 72.3906C133.616 71.9805 133.657 71.6035 133.739 71.2598C133.821 70.9121 133.94 70.6094 134.096 70.3516C134.257 70.0938 134.452 69.8945 134.682 69.7539C134.913 69.6133 135.177 69.543 135.473 69.543C135.567 69.543 135.663 69.5508 135.761 69.5664C135.858 69.5781 135.938 69.5957 136.001 69.6191ZM139.838 76.1172C139.346 76.1172 138.905 76.0391 138.514 75.8828C138.124 75.7227 137.792 75.502 137.518 75.2207C137.249 74.9395 137.042 74.6133 136.897 74.2422C136.752 73.8672 136.68 73.4688 136.68 73.0469V72.8125C136.68 72.332 136.749 71.8926 136.885 71.4941C137.022 71.0957 137.217 70.75 137.471 70.457C137.729 70.1641 138.042 69.9395 138.409 69.7832C138.776 69.623 139.19 69.543 139.651 69.543C140.1 69.543 140.499 69.6172 140.846 69.7656C141.194 69.9141 141.485 70.125 141.719 70.3984C141.958 70.6719 142.137 71 142.258 71.3828C142.379 71.7617 142.44 72.1836 142.44 72.6484V73.3516H137.401V72.2266H140.782V72.0977C140.782 71.8633 140.739 71.6543 140.653 71.4707C140.571 71.2832 140.446 71.1348 140.278 71.0254C140.11 70.916 139.895 70.8613 139.633 70.8613C139.411 70.8613 139.219 70.9102 139.059 71.0078C138.899 71.1055 138.768 71.2422 138.667 71.418C138.569 71.5938 138.495 71.8008 138.444 72.0391C138.397 72.2734 138.374 72.5312 138.374 72.8125V73.0469C138.374 73.3008 138.409 73.5352 138.479 73.75C138.553 73.9648 138.657 74.1504 138.79 74.3066C138.926 74.4629 139.09 74.584 139.282 74.6699C139.477 74.7559 139.698 74.7988 139.944 74.7988C140.249 74.7988 140.532 74.7402 140.794 74.623C141.059 74.502 141.288 74.3203 141.479 74.0781L142.299 74.9688C142.167 75.1602 141.985 75.3438 141.754 75.5195C141.528 75.6953 141.254 75.8398 140.934 75.9531C140.614 76.0625 140.249 76.1172 139.838 76.1172ZM150.473 67.4688V76H148.721V67.4688H150.473ZM153.098 67.4688V68.8457H146.137V67.4688H153.098ZM155.512 71.043V76H153.824V69.6602H155.412L155.512 71.043ZM157.422 69.6191L157.392 71.1836C157.31 71.1719 157.211 71.1621 157.094 71.1543C156.98 71.1426 156.877 71.1367 156.783 71.1367C156.545 71.1367 156.338 71.168 156.162 71.2305C155.99 71.2891 155.846 71.377 155.728 71.4941C155.615 71.6113 155.529 71.7539 155.471 71.9219C155.416 72.0898 155.385 72.2812 155.377 72.4961L155.037 72.3906C155.037 71.9805 155.078 71.6035 155.16 71.2598C155.242 70.9121 155.361 70.6094 155.517 70.3516C155.678 70.0938 155.873 69.8945 156.103 69.7539C156.334 69.6133 156.597 69.543 156.894 69.543C156.988 69.543 157.084 69.5508 157.181 69.5664C157.279 69.5781 157.359 69.5957 157.422 69.6191ZM161.681 74.5703V71.7461C161.681 71.543 161.648 71.3691 161.582 71.2246C161.515 71.0762 161.412 70.9609 161.271 70.8789C161.134 70.7969 160.957 70.7559 160.738 70.7559C160.55 70.7559 160.388 70.7891 160.252 70.8555C160.115 70.918 160.009 71.0098 159.935 71.1309C159.861 71.248 159.824 71.3867 159.824 71.5469H158.136C158.136 71.2773 158.199 71.0215 158.324 70.7793C158.449 70.5371 158.63 70.3242 158.869 70.1406C159.107 69.9531 159.39 69.8066 159.718 69.7012C160.05 69.5957 160.421 69.543 160.832 69.543C161.324 69.543 161.761 69.625 162.144 69.7891C162.527 69.9531 162.828 70.1992 163.046 70.5273C163.269 70.8555 163.38 71.2656 163.38 71.7578V74.4707C163.38 74.8184 163.402 75.1035 163.445 75.3262C163.488 75.5449 163.55 75.7363 163.632 75.9004V76H161.927C161.845 75.8281 161.783 75.6133 161.74 75.3555C161.701 75.0938 161.681 74.832 161.681 74.5703ZM161.904 72.1387L161.916 73.0938H160.972C160.75 73.0938 160.556 73.1191 160.392 73.1699C160.228 73.2207 160.093 73.293 159.988 73.3867C159.882 73.4766 159.804 73.582 159.754 73.7031C159.707 73.8242 159.683 73.957 159.683 74.1016C159.683 74.2461 159.716 74.377 159.783 74.4941C159.849 74.6074 159.945 74.6973 160.07 74.7637C160.195 74.8262 160.341 74.8574 160.509 74.8574C160.763 74.8574 160.984 74.8066 161.171 74.7051C161.359 74.6035 161.504 74.4785 161.605 74.3301C161.711 74.1816 161.765 74.041 161.769 73.9082L162.214 74.623C162.152 74.7832 162.066 74.9492 161.957 75.1211C161.851 75.293 161.716 75.4551 161.552 75.6074C161.388 75.7559 161.191 75.8789 160.961 75.9766C160.73 76.0703 160.457 76.1172 160.14 76.1172C159.738 76.1172 159.373 76.0371 159.045 75.877C158.72 75.7129 158.463 75.4883 158.271 75.2031C158.084 74.9141 157.99 74.5859 157.99 74.2188C157.99 73.8867 158.052 73.5918 158.177 73.334C158.302 73.0762 158.486 72.8594 158.728 72.6836C158.974 72.5039 159.281 72.3691 159.648 72.2793C160.015 72.1855 160.441 72.1387 160.925 72.1387H161.904ZM166.984 74.7695L168.39 69.6602H170.154L168.015 76H166.949L166.984 74.7695ZM166.017 69.6602L167.429 74.7754L167.458 76H166.386L164.247 69.6602H166.017ZM173.985 76.1172C173.493 76.1172 173.052 76.0391 172.661 75.8828C172.271 75.7227 171.939 75.502 171.665 75.2207C171.396 74.9395 171.189 74.6133 171.044 74.2422C170.9 73.8672 170.827 73.4688 170.827 73.0469V72.8125C170.827 72.332 170.896 71.8926 171.032 71.4941C171.169 71.0957 171.364 70.75 171.618 70.457C171.876 70.1641 172.189 69.9395 172.556 69.7832C172.923 69.623 173.337 69.543 173.798 69.543C174.247 69.543 174.646 69.6172 174.993 69.7656C175.341 69.9141 175.632 70.125 175.866 70.3984C176.105 70.6719 176.284 71 176.405 71.3828C176.526 71.7617 176.587 72.1836 176.587 72.6484V73.3516H171.548V72.2266H174.929V72.0977C174.929 71.8633 174.886 71.6543 174.8 71.4707C174.718 71.2832 174.593 71.1348 174.425 71.0254C174.257 70.916 174.042 70.8613 173.78 70.8613C173.558 70.8613 173.366 70.9102 173.206 71.0078C173.046 71.1055 172.915 71.2422 172.814 71.418C172.716 71.5938 172.642 71.8008 172.591 72.0391C172.544 72.2734 172.521 72.5312 172.521 72.8125V73.0469C172.521 73.3008 172.556 73.5352 172.626 73.75C172.7 73.9648 172.804 74.1504 172.937 74.3066C173.073 74.4629 173.237 74.584 173.429 74.6699C173.624 74.7559 173.845 74.7988 174.091 74.7988C174.396 74.7988 174.679 74.7402 174.941 74.623C175.206 74.502 175.435 74.3203 175.626 74.0781L176.446 74.9688C176.314 75.1602 176.132 75.3438 175.901 75.5195C175.675 75.6953 175.401 75.8398 175.081 75.9531C174.761 76.0625 174.396 76.1172 173.985 76.1172ZM179.569 67V76H177.876V67H179.569Z" fill="#101010"/>
<path d="M107.707 73.1699H109.459C109.424 73.7441 109.266 74.2539 108.984 74.6992C108.707 75.1445 108.318 75.4922 107.818 75.7422C107.322 75.9922 106.725 76.1172 106.025 76.1172C105.479 76.1172 104.988 76.0234 104.555 75.8359C104.121 75.6445 103.75 75.3711 103.441 75.0156C103.137 74.6602 102.904 74.2305 102.744 73.7266C102.584 73.2227 102.504 72.6582 102.504 72.0332V71.4414C102.504 70.8164 102.586 70.252 102.75 69.748C102.918 69.2402 103.156 68.8086 103.465 68.4531C103.777 68.0977 104.15 67.8242 104.584 67.6328C105.018 67.4414 105.502 67.3457 106.037 67.3457C106.748 67.3457 107.348 67.4746 107.836 67.7324C108.328 67.9902 108.709 68.3457 108.979 68.7988C109.252 69.252 109.416 69.7676 109.471 70.3457H107.713C107.693 70.002 107.625 69.7109 107.508 69.4727C107.391 69.2305 107.213 69.0488 106.975 68.9277C106.74 68.8027 106.428 68.7402 106.037 68.7402C105.744 68.7402 105.488 68.7949 105.27 68.9043C105.051 69.0137 104.867 69.1797 104.719 69.4023C104.57 69.625 104.459 69.9062 104.385 70.2461C104.314 70.582 104.279 70.9766 104.279 71.4297V72.0332C104.279 72.4746 104.312 72.8633 104.379 73.1992C104.445 73.5312 104.547 73.8125 104.684 74.043C104.824 74.2695 105.004 74.4414 105.223 74.5586C105.445 74.6719 105.713 74.7285 106.025 74.7285C106.393 74.7285 106.695 74.6699 106.934 74.5527C107.172 74.4355 107.354 74.2617 107.479 74.0312C107.607 73.8008 107.684 73.5137 107.707 73.1699ZM114.498 74.4824V69.6602H116.185V76H114.597L114.498 74.4824ZM114.685 73.1816L115.183 73.1699C115.183 73.5918 115.135 73.9844 115.037 74.3477C114.939 74.707 114.793 75.0195 114.597 75.2852C114.402 75.5469 114.156 75.752 113.859 75.9004C113.562 76.0449 113.213 76.1172 112.81 76.1172C112.502 76.1172 112.217 76.0742 111.955 75.9883C111.697 75.8984 111.474 75.7598 111.287 75.5723C111.103 75.3809 110.959 75.1367 110.853 74.8398C110.752 74.5391 110.701 74.1777 110.701 73.7559V69.6602H112.388V73.7676C112.388 73.9551 112.41 74.1133 112.453 74.2422C112.5 74.3711 112.564 74.4766 112.646 74.5586C112.728 74.6406 112.824 74.6992 112.933 74.7344C113.047 74.7695 113.172 74.7871 113.308 74.7871C113.656 74.7871 113.929 74.7168 114.129 74.5762C114.332 74.4355 114.474 74.2441 114.556 74.002C114.642 73.7559 114.685 73.4824 114.685 73.1816ZM119.496 67V76H117.802V67H119.496ZM124.236 69.6602V70.8555H120.544V69.6602H124.236ZM121.458 68.0957H123.146V74.0898C123.146 74.2734 123.169 74.4141 123.216 74.5117C123.267 74.6094 123.341 74.6777 123.439 74.7168C123.536 74.752 123.659 74.7695 123.808 74.7695C123.913 74.7695 124.007 74.7656 124.089 74.7578C124.175 74.7461 124.247 74.7344 124.306 74.7227L124.312 75.9648C124.167 76.0117 124.011 76.0488 123.843 76.0762C123.675 76.1035 123.49 76.1172 123.286 76.1172C122.915 76.1172 122.591 76.0566 122.314 75.9355C122.04 75.8105 121.829 75.6113 121.681 75.3379C121.532 75.0645 121.458 74.7051 121.458 74.2598V68.0957ZM129.187 74.4824V69.6602H130.874V76H129.286L129.187 74.4824ZM129.374 73.1816L129.872 73.1699C129.872 73.5918 129.823 73.9844 129.726 74.3477C129.628 74.707 129.481 75.0195 129.286 75.2852C129.091 75.5469 128.845 75.752 128.548 75.9004C128.251 76.0449 127.901 76.1172 127.499 76.1172C127.19 76.1172 126.905 76.0742 126.644 75.9883C126.386 75.8984 126.163 75.7598 125.976 75.5723C125.792 75.3809 125.647 75.1367 125.542 74.8398C125.44 74.5391 125.39 74.1777 125.39 73.7559V69.6602H127.077V73.7676C127.077 73.9551 127.099 74.1133 127.142 74.2422C127.189 74.3711 127.253 74.4766 127.335 74.5586C127.417 74.6406 127.513 74.6992 127.622 74.7344C127.735 74.7695 127.86 74.7871 127.997 74.7871C128.345 74.7871 128.618 74.7168 128.817 74.5762C129.021 74.4355 129.163 74.2441 129.245 74.002C129.331 73.7559 129.374 73.4824 129.374 73.1816ZM134.091 71.043V76H132.403V69.6602H133.991L134.091 71.043ZM136.001 69.6191L135.971 71.1836C135.889 71.1719 135.79 71.1621 135.673 71.1543C135.559 71.1426 135.456 71.1367 135.362 71.1367C135.124 71.1367 134.917 71.168 134.741 71.2305C134.569 71.2891 134.425 71.377 134.307 71.4941C134.194 71.6113 134.108 71.7539 134.05 71.9219C133.995 72.0898 133.964 72.2812 133.956 72.4961L133.616 72.3906C133.616 71.9805 133.657 71.6035 133.739 71.2598C133.821 70.9121 133.94 70.6094 134.096 70.3516C134.257 70.0938 134.452 69.8945 134.682 69.7539C134.913 69.6133 135.177 69.543 135.473 69.543C135.567 69.543 135.663 69.5508 135.761 69.5664C135.858 69.5781 135.938 69.5957 136.001 69.6191ZM139.838 76.1172C139.346 76.1172 138.905 76.0391 138.514 75.8828C138.124 75.7227 137.792 75.502 137.518 75.2207C137.249 74.9395 137.042 74.6133 136.897 74.2422C136.752 73.8672 136.68 73.4688 136.68 73.0469V72.8125C136.68 72.332 136.749 71.8926 136.885 71.4941C137.022 71.0957 137.217 70.75 137.471 70.457C137.729 70.1641 138.042 69.9395 138.409 69.7832C138.776 69.623 139.19 69.543 139.651 69.543C140.1 69.543 140.499 69.6172 140.846 69.7656C141.194 69.9141 141.485 70.125 141.719 70.3984C141.958 70.6719 142.137 71 142.258 71.3828C142.379 71.7617 142.44 72.1836 142.44 72.6484V73.3516H137.401V72.2266H140.782V72.0977C140.782 71.8633 140.739 71.6543 140.653 71.4707C140.571 71.2832 140.446 71.1348 140.278 71.0254C140.11 70.916 139.895 70.8613 139.633 70.8613C139.411 70.8613 139.219 70.9102 139.059 71.0078C138.899 71.1055 138.768 71.2422 138.667 71.418C138.569 71.5938 138.495 71.8008 138.444 72.0391C138.397 72.2734 138.374 72.5312 138.374 72.8125V73.0469C138.374 73.3008 138.409 73.5352 138.479 73.75C138.553 73.9648 138.657 74.1504 138.79 74.3066C138.926 74.4629 139.09 74.584 139.282 74.6699C139.477 74.7559 139.698 74.7988 139.944 74.7988C140.249 74.7988 140.532 74.7402 140.794 74.623C141.059 74.502 141.288 74.3203 141.479 74.0781L142.299 74.9688C142.167 75.1602 141.985 75.3438 141.754 75.5195C141.528 75.6953 141.254 75.8398 140.934 75.9531C140.614 76.0625 140.249 76.1172 139.838 76.1172ZM150.473 67.4688V76H148.721V67.4688H150.473ZM153.098 67.4688V68.8457H146.137V67.4688H153.098ZM155.512 71.043V76H153.824V69.6602H155.412L155.512 71.043ZM157.422 69.6191L157.392 71.1836C157.31 71.1719 157.211 71.1621 157.094 71.1543C156.98 71.1426 156.877 71.1367 156.783 71.1367C156.545 71.1367 156.338 71.168 156.162 71.2305C155.99 71.2891 155.846 71.377 155.728 71.4941C155.615 71.6113 155.529 71.7539 155.471 71.9219C155.416 72.0898 155.385 72.2812 155.377 72.4961L155.037 72.3906C155.037 71.9805 155.078 71.6035 155.16 71.2598C155.242 70.9121 155.361 70.6094 155.517 70.3516C155.678 70.0938 155.873 69.8945 156.103 69.7539C156.334 69.6133 156.597 69.543 156.894 69.543C156.988 69.543 157.084 69.5508 157.181 69.5664C157.279 69.5781 157.359 69.5957 157.422 69.6191ZM161.681 74.5703V71.7461C161.681 71.543 161.648 71.3691 161.582 71.2246C161.515 71.0762 161.412 70.9609 161.271 70.8789C161.134 70.7969 160.957 70.7559 160.738 70.7559C160.55 70.7559 160.388 70.7891 160.252 70.8555C160.115 70.918 160.009 71.0098 159.935 71.1309C159.861 71.248 159.824 71.3867 159.824 71.5469H158.136C158.136 71.2773 158.199 71.0215 158.324 70.7793C158.449 70.5371 158.63 70.3242 158.869 70.1406C159.107 69.9531 159.39 69.8066 159.718 69.7012C160.05 69.5957 160.421 69.543 160.832 69.543C161.324 69.543 161.761 69.625 162.144 69.7891C162.527 69.9531 162.828 70.1992 163.046 70.5273C163.269 70.8555 163.38 71.2656 163.38 71.7578V74.4707C163.38 74.8184 163.402 75.1035 163.445 75.3262C163.488 75.5449 163.55 75.7363 163.632 75.9004V76H161.927C161.845 75.8281 161.783 75.6133 161.74 75.3555C161.701 75.0938 161.681 74.832 161.681 74.5703ZM161.904 72.1387L161.916 73.0938H160.972C160.75 73.0938 160.556 73.1191 160.392 73.1699C160.228 73.2207 160.093 73.293 159.988 73.3867C159.882 73.4766 159.804 73.582 159.754 73.7031C159.707 73.8242 159.683 73.957 159.683 74.1016C159.683 74.2461 159.716 74.377 159.783 74.4941C159.849 74.6074 159.945 74.6973 160.07 74.7637C160.195 74.8262 160.341 74.8574 160.509 74.8574C160.763 74.8574 160.984 74.8066 161.171 74.7051C161.359 74.6035 161.504 74.4785 161.605 74.3301C161.711 74.1816 161.765 74.041 161.769 73.9082L162.214 74.623C162.152 74.7832 162.066 74.9492 161.957 75.1211C161.851 75.293 161.716 75.4551 161.552 75.6074C161.388 75.7559 161.191 75.8789 160.961 75.9766C160.73 76.0703 160.457 76.1172 160.14 76.1172C159.738 76.1172 159.373 76.0371 159.045 75.877C158.72 75.7129 158.463 75.4883 158.271 75.2031C158.084 74.9141 157.99 74.5859 157.99 74.2188C157.99 73.8867 158.052 73.5918 158.177 73.334C158.302 73.0762 158.486 72.8594 158.728 72.6836C158.974 72.5039 159.281 72.3691 159.648 72.2793C160.015 72.1855 160.441 72.1387 160.925 72.1387H161.904ZM166.984 74.7695L168.39 69.6602H170.154L168.015 76H166.949L166.984 74.7695ZM166.017 69.6602L167.429 74.7754L167.458 76H166.386L164.247 69.6602H166.017ZM173.985 76.1172C173.493 76.1172 173.052 76.0391 172.661 75.8828C172.271 75.7227 171.939 75.502 171.665 75.2207C171.396 74.9395 171.189 74.6133 171.044 74.2422C170.9 73.8672 170.827 73.4688 170.827 73.0469V72.8125C170.827 72.332 170.896 71.8926 171.032 71.4941C171.169 71.0957 171.364 70.75 171.618 70.457C171.876 70.1641 172.189 69.9395 172.556 69.7832C172.923 69.623 173.337 69.543 173.798 69.543C174.247 69.543 174.646 69.6172 174.993 69.7656C175.341 69.9141 175.632 70.125 175.866 70.3984C176.105 70.6719 176.284 71 176.405 71.3828C176.526 71.7617 176.587 72.1836 176.587 72.6484V73.3516H171.548V72.2266H174.929V72.0977C174.929 71.8633 174.886 71.6543 174.8 71.4707C174.718 71.2832 174.593 71.1348 174.425 71.0254C174.257 70.916 174.042 70.8613 173.78 70.8613C173.558 70.8613 173.366 70.9102 173.206 71.0078C173.046 71.1055 172.915 71.2422 172.814 71.418C172.716 71.5938 172.642 71.8008 172.591 72.0391C172.544 72.2734 172.521 72.5312 172.521 72.8125V73.0469C172.521 73.3008 172.556 73.5352 172.626 73.75C172.7 73.9648 172.804 74.1504 172.937 74.3066C173.073 74.4629 173.237 74.584 173.429 74.6699C173.624 74.7559 173.845 74.7988 174.091 74.7988C174.396 74.7988 174.679 74.7402 174.941 74.623C175.206 74.502 175.435 74.3203 175.626 74.0781L176.446 74.9688C176.314 75.1602 176.132 75.3438 175.901 75.5195C175.675 75.6953 175.401 75.8398 175.081 75.9531C174.761 76.0625 174.396 76.1172 173.985 76.1172ZM179.569 67V76H177.876V67H179.569Z" fill="black" fill-opacity="0.2"/>
<path d="M133.828 43.6797H140.836C140.695 45.9766 140.062 48.0156 138.938 49.7969C137.828 51.5781 136.273 52.9688 134.273 53.9688C132.289 54.9688 129.898 55.4688 127.102 55.4688C124.914 55.4688 122.953 55.0938 121.219 54.3438C119.484 53.5781 118 52.4844 116.766 51.0625C115.547 49.6406 114.617 47.9219 113.977 45.9062C113.336 43.8906 113.016 41.6328 113.016 39.1328V36.7656C113.016 34.2656 113.344 32.0078 114 29.9922C114.672 27.9609 115.625 26.2344 116.859 24.8125C118.109 23.3906 119.602 22.2969 121.336 21.5312C123.07 20.7656 125.008 20.3828 127.148 20.3828C129.992 20.3828 132.391 20.8984 134.344 21.9297C136.312 22.9609 137.836 24.3828 138.914 26.1953C140.008 28.0078 140.664 30.0703 140.883 32.3828H133.852C133.773 31.0078 133.5 29.8438 133.031 28.8906C132.562 27.9219 131.852 27.1953 130.898 26.7109C129.961 26.2109 128.711 25.9609 127.148 25.9609C125.977 25.9609 124.953 26.1797 124.078 26.6172C123.203 27.0547 122.469 27.7188 121.875 28.6094C121.281 29.5 120.836 30.625 120.539 31.9844C120.258 33.3281 120.117 34.9062 120.117 36.7188V39.1328C120.117 40.8984 120.25 42.4531 120.516 43.7969C120.781 45.125 121.188 46.25 121.734 47.1719C122.297 48.0781 123.016 48.7656 123.891 49.2344C124.781 49.6875 125.852 49.9141 127.102 49.9141C128.57 49.9141 129.781 49.6797 130.734 49.2109C131.688 48.7422 132.414 48.0469 132.914 47.125C133.43 46.2031 133.734 45.0547 133.828 43.6797Z" fill="#28B281"/>
</svg>
